<svg width="472" height="544" fill="none" xmlns="http://www.w3.org/2000/svg"><g id="undraw_hello" clip-path="url('#clip0_1_160')" filter="url('#filter0_dd_1_160')"><g id="cuerpo"><path id="Vector" d="M283.389 196.054c-20.934 0-32.288-2.558-36.254-8.018-3.499-4.818-1.153-11.175 1.563-18.536 1.952-5.29 4.165-11.286 4.165-17.221 0-28.864 14.636-43.5 43.5-43.5 14.361 0 29.781 7.629 41.248 20.408 10.425 11.617 15.619 25.521 14.249 38.146-1.124 10.354-5.943 17.163-15.167 21.43l-.54.249-.153-.574a24.546 24.546 0 0 0-3.974-8.241 28.205 28.205 0 0 1-2.875 11.174l-.098.198-.213.061c-10.44 2.974-22.83 3.78-32.458 4.149-4.686.182-9.017.274-12.993.275Z" fill="#2F2E41"/><path id="Vector_2" d="M289.094 236.271a15.66 15.66 0 0 0-17.66-10.363 15.665 15.665 0 0 0-6.732 2.998l-68.856 41.167-21.547-52.573a15.295 15.295 0 0 0-17.814-23.011 15.296 15.296 0 0 0 .913 29.086c1.328 15.161 8.708 82.921 34.383 80.458 21.581-2.07 75.176-37.763 91.822-50.139a15.67 15.67 0 0 0 5.491-17.623Z" fill="#FFB6B6"/><path id="Vector_3" d="M340.983 535.279h-59.93l-10.05-49.69-3.26 49.69h-55.67a1135.485 1135.485 0 0 1 6.09-116.83l.69-2.35 1.09-3.76.69-2.36 11.52-39.56.91-3.14h69.37a101.597 101.597 0 0 1 11.01 12.16c1.13 1.44 2.31 3 3.52 4.68.84 1.19 1.71 2.44 2.58 3.75a126.032 126.032 0 0 1 17.1 37.6v.01c.61 2.29 1.15 4.634 1.62 7.03v.01c.42 2.13.79 4.29 1.08 6.5.22 1.61.41 3.24.55 4.89.834 9.141.541 18.35-.87 27.42l1.96 63.95Z" fill="#2F2E41"/><path id="Vector_4" d="m273.264 204.09 33.016-1.701 15.335 24.231s28.854 4.824 26.854 38.824-35.106 63.835-35.106 63.835l1.415 17.706-2.458 7.023.315 3.943 3.353 4.176.345 4.319-2.97 6.833 4.04 6.543-84.934-8.229-3.106-11.314 4.531-6.075-2.531-7.925 3.804-7.622 1.984-24.211s-21.704-32.607 3.212-57.167l10-17 11.189-13.651 11.712-22.538Z" fill="#E2B13C"/><path id="Vector_5" d="M289.678 197.248c19.321 0 34.984-15.663 34.984-34.984 0-19.322-15.663-34.985-34.984-34.985s-34.984 15.663-34.984 34.985c0 19.321 15.663 34.984 34.984 34.984Z" fill="#FFB6B6"/><path id="Vector_6" d="M284.994 160.143c-3.015 0-6.028-.085-9.039-.255l-.538-.03.07-.534c.444-3.34.194-6.734-.733-9.973a28.196 28.196 0 0 1-6.873 9.707l-.167.153-.225-.025a172.606 172.606 0 0 1-24.25-4.422l-.305-.078-.061-.309a45.729 45.729 0 0 1-.92-8.878c0-9.316 3.377-17.157 9.51-22.078 6.676-5.357 16.245-7.005 26.955-4.642h34.245a14.219 14.219 0 0 1 14.2 14.2v21.686l-.374.098a163.79 163.79 0 0 1-41.495 5.38Z" fill="#2F2E41"/><path id="Vector_7" d="M46.28 121.229a6.167 6.167 0 0 0-3.676 7.893l36.943 101.369a6.162 6.162 0 0 0 7.893 3.676l143.383-52.255a6.159 6.159 0 0 0 3.47-3.186c.69-1.48.764-3.172.206-4.707L197.556 72.65a6.16 6.16 0 0 0-7.893-3.676L46.28 121.229Z" fill="#CCC"/><path id="Vector_8" d="m177.459 195.772-87.765 31.986a6.637 6.637 0 0 1-8.495-3.957L47.692 131.86a6.635 6.635 0 0 1 3.956-8.495L186.93 74.063a6.635 6.635 0 0 1 8.495 3.957l16.191 44.424a57.264 57.264 0 0 1-34.156 73.328Z" fill="#fff"/></g><g id="textouno"><path id="Vector_9" d="m114.307 129.353-20.856 7.6a2.108 2.108 0 0 1-1.62-.07 2.113 2.113 0 0 1-1.223-2.013 2.115 2.115 0 0 1 .685-1.471c.205-.188.445-.334.707-.429l20.856-7.601a2.121 2.121 0 0 1 2.647 2.887 2.12 2.12 0 0 1-1.196 1.097Z" fill="#E2B13C"/></g><g id="textodos"><path id="Vector_10" d="M164.028 120.46 96.42 145.099a2.11 2.11 0 0 1-1.622-.068 2.133 2.133 0 0 1-1.098-1.197 2.116 2.116 0 0 1 .56-2.289 2.12 2.12 0 0 1 .708-.429l67.609-24.639a2.105 2.105 0 0 1 1.62.07 2.106 2.106 0 0 1 1.097 1.195 2.13 2.13 0 0 1-.07 1.621 2.11 2.11 0 0 1-1.196 1.097Z" fill="#E2B13C"/></g><g id="textocuatro"><path id="Vector_11" d="m167.436 129.81-67.608 24.64a2.126 2.126 0 0 1-2.288-.559 2.113 2.113 0 0 1-.556-1.524 2.119 2.119 0 0 1 1.392-1.901l67.608-24.639a2.117 2.117 0 0 1 2.715 1.267 2.117 2.117 0 0 1-1.263 2.716Z" fill="#E2B13C"/></g><g id="textotres"><path id="Vector_12" d="M170.844 139.161 103.235 163.8a2.116 2.116 0 0 1-2.846-2.083 2.118 2.118 0 0 1 1.395-1.9l67.608-24.64a2.126 2.126 0 0 1 2.288.559 2.13 2.13 0 0 1 .359 2.328 2.133 2.133 0 0 1-1.195 1.097Z" fill="#E2B13C"/></g><g id="textocinco"><path id="Vector_13" d="m174.251 148.511-67.608 24.64a2.122 2.122 0 0 1-1.452-3.984l67.609-24.639a2.123 2.123 0 0 1 2.717 1.266 2.117 2.117 0 0 1-1.266 2.717Z" fill="#E2B13C"/></g><g id="brazo"><path id="Vector_14" d="m388.773 174.48-37.016 88.58a15.5 15.5 0 0 1-20.071 8.356 15.498 15.498 0 0 1-8.255-20.918l41.271-90.835 22.752-56.251a13.525 13.525 0 0 1-2.71-15.282 13.52 13.52 0 0 1 13.439-7.763 13.52 13.52 0 0 1 11.884 9.981 13.516 13.516 0 0 1-5.325 14.578l-15.969 69.554Z" fill="#FFB6B6"/></g></g><defs><clipPath id="clip0_1_160"><path fill="#fff" d="M0 0h471.644v535.279H0z"/></clipPath><filter id="filter0_dd_1_160" x="-4" y="0" width="479.644" height="543.279" filterUnits="userSpaceOnUse" color-interpolation-filters="sRGB"><feFlood flood-opacity="0" result="BackgroundImageFix"/><feColorMatrix in="SourceAlpha" values="0 0 0 0 0 0 0 0 0 0 0 0 0 0 0 0 0 0 127 0" result="hardAlpha"/><feOffset dy="4"/><feGaussianBlur stdDeviation="2"/><feComposite in2="hardAlpha" operator="out"/><feColorMatrix values="0 0 0 0 0 0 0 0 0 0 0 0 0 0 0 0 0 0 0.25 0"/><feBlend in2="BackgroundImageFix" result="effect1_dropShadow_1_160"/><feColorMatrix in="SourceAlpha" values="0 0 0 0 0 0 0 0 0 0 0 0 0 0 0 0 0 0 127 0" result="hardAlpha"/><feOffset dy="4"/><feGaussianBlur stdDeviation="2"/><feComposite in2="hardAlpha" operator="out"/><feColorMatrix values="0 0 0 0 0 0 0 0 0 0 0 0 0 0 0 0 0 0 0.25 0"/><feBlend in2="effect1_dropShadow_1_160" result="effect2_dropShadow_1_160"/><feBlend in="SourceGraphic" in2="effect2_dropShadow_1_160" result="shape"/></filter></defs></svg>